<svg width="279" height="342" viewBox="0 0 279 342" fill="none" xmlns="http://www.w3.org/2000/svg">
    <path opacity="0.6"
        d="M238.055 77.38C253.148 80.9685 263.077 95.0352 261.019 109.913L219.375 411.028C217.007 428.149 199.888 439.418 182.52 435.288L-107.382 366.358C-122.474 362.769 -132.403 348.703 -130.346 333.825L-88.7014 32.7094C-86.3337 15.5887 -69.2146 4.31988 -51.8468 8.44945L238.055 77.38Z"
        fill="white" />
    <path
        d="M248.344 46.7894C264.867 49.0747 276.469 63.8979 274.256 79.8979L232.54 381.534C230.327 397.534 215.138 408.652 198.614 406.367L-104.097 364.502C-120.621 362.217 -132.222 347.393 -130.009 331.393L-88.2931 29.7573C-86.0803 13.7573 -70.8913 2.6392 -54.3674 4.92446L248.344 46.7894Z"
        fill="white" />
</svg>