<svg width="40" height="32" viewBox="0 0 40 32" fill="none" xmlns="http://www.w3.org/2000/svg">
<path opacity="0.2" d="M8.24764 8.93686C8.61356 7.93581 9.55106 7.27197 10.5989 7.27197H36.3872C38.137 7.27197 39.3495 9.05193 38.7385 10.7236L31.7526 29.8352C31.3867 30.8363 30.4492 31.5001 29.4013 31.5001H3.61304C1.86326 31.5001 0.650744 29.7202 1.26178 28.0485L8.24764 8.93686Z" fill="white"/>
<path opacity="0.4" d="M5.46939 6.26842C5.72341 5.09653 6.74233 4.26221 7.9195 4.26221H33.9239C35.5279 4.26221 36.7201 5.77562 36.374 7.3725L31.579 29.4939C31.325 30.6658 30.306 31.5001 29.1289 31.5001H3.12449C1.52043 31.5001 0.328245 29.9867 0.674384 28.3898L5.46939 6.26842Z" fill="white"/>
<path opacity="0.6" d="M2.72746 3.55739C2.85515 2.24906 3.93476 1.25244 5.22436 1.25244H31.325C32.8091 1.25244 33.9689 2.55841 33.8219 4.064L31.3693 29.1951C31.2416 30.5034 30.1619 31.5 28.8724 31.5H2.77168C1.28766 31.5 0.127841 30.194 0.274779 28.6885L2.72746 3.55739Z" fill="white"/>
<path d="M0 3.05825C0 1.64537 1.12342 0.5 2.50922 0.5H28.6347C30.0205 0.5 31.1439 1.64537 31.1439 3.05825V28.9417C31.1439 30.3546 30.0205 31.5 28.6347 31.5H2.50923C1.12342 31.5 0 30.3546 0 28.9417V3.05825Z" fill="white"/>
<path opacity="0.8" fill-rule="evenodd" clip-rule="evenodd" d="M20.3504 15.877C20.3504 13.0764 18.1969 10.8327 15.5718 10.8327L15.5718 7.27197C20.1101 7.27197 23.7637 11.1393 23.7637 15.877C23.7637 20.6147 20.1101 24.482 15.5718 24.482L15.5718 20.9213C18.1969 20.9213 20.3504 18.6776 20.3504 15.877Z" fill="#262146"/>
<path fill-rule="evenodd" clip-rule="evenodd" d="M12.1585 15.877C12.1585 13.0764 10.005 10.8327 7.3799 10.8327L7.3799 7.27197C11.9182 7.27197 15.5718 11.1393 15.5718 15.877C15.5718 20.6147 11.9182 24.482 7.3799 24.482L7.3799 20.9213C10.005 20.9213 12.1585 18.6776 12.1585 15.877Z" fill="#262146"/>
<path d="M15.5718 24.4819H7.3799V20.9387H15.5718V24.4819Z" fill="#514D6B"/>
<path d="M15.5718 10.8154H7.3799V7.27218H15.5718V10.8154Z" fill="#FF3E3E"/>
</svg>
