<svg width="311" height="168" viewBox="0 0 311 168" fill="none" xmlns="http://www.w3.org/2000/svg">
    <g clip-path="url(#clip0_4795_3657)">
        <path
            d="M155.5 133C192.227 133 222 103.227 222 66.4999C222 29.773 192.227 0 155.5 0C118.773 0 89 29.773 89 66.4999C89 103.227 118.773 133 155.5 133Z"
            fill="#FD5959" />
        <path
            d="M155.5 112.013C186.431 112.013 211.506 86.9382 211.506 56.0066C211.506 25.075 186.431 0 155.5 0C124.568 0 99.4932 25.075 99.4932 56.0066C99.4932 86.9382 124.568 112.013 155.5 112.013Z"
            fill="#FD5959" />
        <path
            d="M209.314 105.578C207.645 107.871 205.834 110.054 203.894 112.111C201.052 115.124 197.933 117.871 194.578 120.314L184.942 110.678C182.906 108.645 181.889 105.977 181.889 103.309C181.889 100.643 182.906 97.9777 184.942 95.9422C189.011 91.8734 195.609 91.8734 199.678 95.9422L209.314 105.578Z"
            fill="#484B7F" />
        <path
            d="M194.577 120.315C196.871 118.646 199.053 116.835 201.111 114.895L190.918 104.702C187.914 101.698 187.129 97.314 188.565 93.5874C187.243 94.095 186.006 94.8766 184.942 95.9435C182.906 97.9764 181.891 100.645 181.891 103.313C181.891 105.978 182.906 108.644 184.942 110.679L194.577 120.315Z"
            fill="#343A6E" />
        <path
            d="M140.655 103.311C169.184 103.311 192.311 80.184 192.311 51.6555C192.311 23.1269 169.184 0 140.655 0C112.127 0 89 23.1269 89 51.6555C89 80.184 112.127 103.311 140.655 103.311Z"
            fill="#343A6E" />
        <path
            d="M111.281 81.0272C112.513 82.2596 113.802 83.3968 115.143 84.4418C130.104 96.1106 151.213 96.1106 166.169 84.4393C167.507 83.3942 168.797 82.257 170.026 81.0275C186.249 64.8068 186.249 38.5054 170.026 22.2822C153.805 6.06154 127.504 6.06154 111.281 22.2822C95.0601 38.5049 95.0601 64.8066 111.281 81.0272Z"
            fill="#A9C7E0" />
        <path
            d="M128.57 81.0269C112.348 64.8053 112.348 38.5044 128.57 22.2827C134.469 16.3831 141.702 12.6318 149.298 11.0233C136.007 8.20901 121.604 11.9606 111.281 22.2827C95.0598 38.5044 95.0598 64.8053 111.281 81.0269C121.604 91.3493 136.007 95.1011 149.298 92.2863C141.702 90.6781 134.469 86.9265 128.57 81.0269Z"
            fill="#5897D1" />
        <path
            d="M186.811 78.5479L167.548 97.8112C164.992 100.367 164.992 104.511 167.548 107.068C170.104 109.624 174.248 109.624 176.804 107.068L196.068 87.8042C198.624 85.2481 198.624 81.104 196.068 78.5479C193.511 75.9918 189.367 75.9918 186.811 78.5479Z"
            fill="#484B7F" />
        <path
            d="M175.442 99.1738C172.886 96.6177 172.886 92.4736 175.442 89.9175L167.548 97.8115C164.992 100.368 164.992 104.512 167.548 107.068C170.104 109.624 174.248 109.624 176.804 107.068L184.698 99.1738C182.142 101.73 177.998 101.73 175.442 99.1738Z"
            fill="#343A6E" />
        <path
            d="M140.654 17.4305C149.796 17.4305 158.39 20.9903 164.854 27.4538C171.319 33.9187 174.879 42.5138 174.879 51.6558C174.879 60.7976 171.319 69.3917 164.854 75.8557C163.853 76.8569 162.78 77.8055 161.668 78.6742C155.714 83.3201 148.252 85.8794 140.656 85.8794C133.061 85.8794 125.598 83.3212 119.639 78.6737C118.529 77.8081 117.456 76.86 116.452 75.8557C109.989 69.3922 106.429 60.7978 106.429 51.6558C106.429 42.5136 109.989 33.9181 116.452 27.4544C122.917 20.9903 131.512 17.4305 140.654 17.4305ZM140.654 9.08545C129.759 9.08545 118.864 13.2412 110.551 21.553C93.9282 38.1789 93.9282 65.1333 110.551 81.7563C111.814 83.0193 113.135 84.1849 114.51 85.2557C122.175 91.2342 131.417 94.2241 140.656 94.2241C149.898 94.2241 159.138 91.2345 166.802 85.2528C168.173 84.1818 169.494 83.0162 170.755 81.7563C187.381 65.1333 187.381 38.1789 170.755 21.553C162.443 13.2412 151.549 9.08545 140.654 9.08545Z"
            fill="#F0F0F0" />
    </g>
    <path
        d="M3.82031 160.414L4.03906 161.914L4.35938 160.562L6.60938 152.625H7.875L10.0703 160.562L10.3828 161.938L10.625 160.406L12.3906 152.625H13.8984L11.1406 164H9.77344L7.42969 155.711L7.25 154.844L7.07031 155.711L4.64062 164H3.27344L0.523438 152.625H2.02344L3.82031 160.414ZM18.6016 164.156C17.4557 164.156 16.5234 163.781 15.8047 163.031C15.0859 162.276 14.7266 161.268 14.7266 160.008V159.742C14.7266 158.904 14.8854 158.156 15.2031 157.5C15.526 156.839 15.974 156.323 16.5469 155.953C17.125 155.578 17.75 155.391 18.4219 155.391C19.5208 155.391 20.375 155.753 20.9844 156.477C21.5938 157.201 21.8984 158.237 21.8984 159.586V160.188H16.1719C16.1927 161.021 16.4349 161.695 16.8984 162.211C17.3672 162.721 17.9609 162.977 18.6797 162.977C19.1901 162.977 19.6224 162.872 19.9766 162.664C20.3307 162.456 20.6406 162.18 20.9062 161.836L21.7891 162.523C21.0807 163.612 20.0182 164.156 18.6016 164.156ZM18.4219 156.578C17.8385 156.578 17.349 156.792 16.9531 157.219C16.5573 157.641 16.3125 158.234 16.2188 159H20.4531V158.891C20.4115 158.156 20.2135 157.589 19.8594 157.188C19.5052 156.781 19.026 156.578 18.4219 156.578ZM30.9375 162.977C31.4531 162.977 31.9036 162.82 32.2891 162.508C32.6745 162.195 32.888 161.805 32.9297 161.336H34.2969C34.2708 161.82 34.1042 162.281 33.7969 162.719C33.4896 163.156 33.0781 163.505 32.5625 163.766C32.0521 164.026 31.5104 164.156 30.9375 164.156C29.7865 164.156 28.8698 163.773 28.1875 163.008C27.5104 162.237 27.1719 161.185 27.1719 159.852V159.609C27.1719 158.786 27.3229 158.055 27.625 157.414C27.9271 156.773 28.3594 156.276 28.9219 155.922C29.4896 155.568 30.1589 155.391 30.9297 155.391C31.8776 155.391 32.6641 155.674 33.2891 156.242C33.9193 156.81 34.2552 157.547 34.2969 158.453H32.9297C32.888 157.906 32.6797 157.458 32.3047 157.109C31.9349 156.755 31.4766 156.578 30.9297 156.578C30.1953 156.578 29.625 156.844 29.2188 157.375C28.8177 157.901 28.6172 158.664 28.6172 159.664V159.938C28.6172 160.911 28.8177 161.661 29.2188 162.188C29.6198 162.714 30.1927 162.977 30.9375 162.977ZM35.5391 159.695C35.5391 158.867 35.7005 158.122 36.0234 157.461C36.3516 156.799 36.8047 156.289 37.3828 155.93C37.9661 155.57 38.6302 155.391 39.375 155.391C40.526 155.391 41.4557 155.789 42.1641 156.586C42.8776 157.383 43.2344 158.443 43.2344 159.766V159.867C43.2344 160.69 43.0755 161.43 42.7578 162.086C42.4453 162.737 41.9948 163.245 41.4062 163.609C40.8229 163.974 40.151 164.156 39.3906 164.156C38.2448 164.156 37.3151 163.758 36.6016 162.961C35.8932 162.164 35.5391 161.109 35.5391 159.797V159.695ZM36.9922 159.867C36.9922 160.805 37.2083 161.557 37.6406 162.125C38.0781 162.693 38.6615 162.977 39.3906 162.977C40.125 162.977 40.7083 162.69 41.1406 162.117C41.5729 161.539 41.7891 160.732 41.7891 159.695C41.7891 158.768 41.5677 158.018 41.125 157.445C40.6875 156.867 40.1042 156.578 39.375 156.578C38.6615 156.578 38.0859 156.862 37.6484 157.43C37.2109 157.997 36.9922 158.81 36.9922 159.867ZM50.2656 163.164C49.7031 163.826 48.8776 164.156 47.7891 164.156C46.888 164.156 46.2005 163.896 45.7266 163.375C45.2578 162.849 45.0208 162.073 45.0156 161.047V155.547H46.4609V161.008C46.4609 162.289 46.9818 162.93 48.0234 162.93C49.1276 162.93 49.862 162.518 50.2266 161.695V155.547H51.6719V164H50.2969L50.2656 163.164ZM55.4453 164H54V152H55.4453V164ZM57.4141 159.703C57.4141 158.406 57.7214 157.365 58.3359 156.578C58.9505 155.786 59.7552 155.391 60.75 155.391C61.7396 155.391 62.5234 155.729 63.1016 156.406V152H64.5469V164H63.2188L63.1484 163.094C62.5703 163.802 61.7656 164.156 60.7344 164.156C59.7552 164.156 58.9557 163.755 58.3359 162.953C57.7214 162.151 57.4141 161.104 57.4141 159.812V159.703ZM58.8594 159.867C58.8594 160.826 59.0573 161.576 59.4531 162.117C59.849 162.659 60.3958 162.93 61.0938 162.93C62.0104 162.93 62.6797 162.518 63.1016 161.695V157.812C62.6693 157.016 62.0052 156.617 61.1094 156.617C60.401 156.617 59.849 156.891 59.4531 157.438C59.0573 157.984 58.8594 158.794 58.8594 159.867ZM68.1641 155.547L68.2109 156.609C68.8568 155.797 69.7005 155.391 70.7422 155.391C72.5286 155.391 73.4297 156.398 73.4453 158.414V164H72V158.406C71.9948 157.797 71.8542 157.346 71.5781 157.055C71.3073 156.763 70.8828 156.617 70.3047 156.617C69.8359 156.617 69.4245 156.742 69.0703 156.992C68.7161 157.242 68.4401 157.57 68.2422 157.977V164H66.7969V155.547H68.1641ZM75.1016 155.828L74.2812 155.266C74.7656 154.589 75.0156 153.875 75.0312 153.125V152H76.4609V153.016C76.4557 153.536 76.3255 154.057 76.0703 154.578C75.8203 155.094 75.4974 155.51 75.1016 155.828ZM80.1641 153.5V155.547H81.7422V156.664H80.1641V161.906C80.1641 162.245 80.2344 162.5 80.375 162.672C80.5156 162.839 80.7552 162.922 81.0938 162.922C81.2604 162.922 81.4896 162.891 81.7812 162.828V164C81.401 164.104 81.0312 164.156 80.6719 164.156C80.026 164.156 79.5391 163.961 79.2109 163.57C78.8828 163.18 78.7188 162.625 78.7188 161.906V156.664H77.1797V155.547H78.7188V153.5H80.1641ZM88.1172 164V156.664H86.7812V155.547H88.1172V154.68C88.1172 153.773 88.3594 153.073 88.8438 152.578C89.3281 152.083 90.013 151.836 90.8984 151.836C91.2318 151.836 91.5625 151.88 91.8906 151.969L91.8125 153.141C91.5677 153.094 91.3073 153.07 91.0312 153.07C90.5625 153.07 90.2005 153.208 89.9453 153.484C89.6901 153.755 89.5625 154.146 89.5625 154.656V155.547H91.3672V156.664H89.5625V164H88.1172ZM94.5391 164H93.0938V155.547H94.5391V164ZM92.9766 153.305C92.9766 153.07 93.0469 152.872 93.1875 152.711C93.3333 152.549 93.5469 152.469 93.8281 152.469C94.1094 152.469 94.3229 152.549 94.4688 152.711C94.6146 152.872 94.6875 153.07 94.6875 153.305C94.6875 153.539 94.6146 153.734 94.4688 153.891C94.3229 154.047 94.1094 154.125 93.8281 154.125C93.5469 154.125 93.3333 154.047 93.1875 153.891C93.0469 153.734 92.9766 153.539 92.9766 153.305ZM98.2266 155.547L98.2734 156.609C98.9193 155.797 99.763 155.391 100.805 155.391C102.591 155.391 103.492 156.398 103.508 158.414V164H102.062V158.406C102.057 157.797 101.917 157.346 101.641 157.055C101.37 156.763 100.945 156.617 100.367 156.617C99.8984 156.617 99.487 156.742 99.1328 156.992C98.7786 157.242 98.5026 157.57 98.3047 157.977V164H96.8594V155.547H98.2266ZM105.336 159.703C105.336 158.406 105.643 157.365 106.258 156.578C106.872 155.786 107.677 155.391 108.672 155.391C109.661 155.391 110.445 155.729 111.023 156.406V152H112.469V164H111.141L111.07 163.094C110.492 163.802 109.688 164.156 108.656 164.156C107.677 164.156 106.878 163.755 106.258 162.953C105.643 162.151 105.336 161.104 105.336 159.812V159.703ZM106.781 159.867C106.781 160.826 106.979 161.576 107.375 162.117C107.771 162.659 108.318 162.93 109.016 162.93C109.932 162.93 110.602 162.518 111.023 161.695V157.812C110.591 157.016 109.927 156.617 109.031 156.617C108.323 156.617 107.771 156.891 107.375 157.438C106.979 157.984 106.781 158.794 106.781 159.867ZM123.906 164C123.823 163.833 123.755 163.536 123.703 163.109C123.031 163.807 122.229 164.156 121.297 164.156C120.464 164.156 119.779 163.922 119.242 163.453C118.711 162.979 118.445 162.38 118.445 161.656C118.445 160.776 118.779 160.094 119.445 159.609C120.117 159.12 121.06 158.875 122.273 158.875H123.68V158.211C123.68 157.706 123.529 157.305 123.227 157.008C122.924 156.706 122.479 156.555 121.891 156.555C121.375 156.555 120.943 156.685 120.594 156.945C120.245 157.206 120.07 157.521 120.07 157.891H118.617C118.617 157.469 118.766 157.062 119.062 156.672C119.365 156.276 119.771 155.964 120.281 155.734C120.797 155.505 121.362 155.391 121.977 155.391C122.951 155.391 123.714 155.635 124.266 156.125C124.818 156.609 125.104 157.279 125.125 158.133V162.023C125.125 162.799 125.224 163.417 125.422 163.875V164H123.906ZM121.508 162.898C121.961 162.898 122.391 162.781 122.797 162.547C123.203 162.312 123.497 162.008 123.68 161.633V159.898H122.547C120.776 159.898 119.891 160.417 119.891 161.453C119.891 161.906 120.042 162.26 120.344 162.516C120.646 162.771 121.034 162.898 121.508 162.898ZM128.758 155.547L128.805 156.609C129.451 155.797 130.294 155.391 131.336 155.391C133.122 155.391 134.023 156.398 134.039 158.414V164H132.594V158.406C132.589 157.797 132.448 157.346 132.172 157.055C131.901 156.763 131.477 156.617 130.898 156.617C130.43 156.617 130.018 156.742 129.664 156.992C129.31 157.242 129.034 157.57 128.836 157.977V164H127.391V155.547H128.758ZM138.984 161.883L140.953 155.547H142.5L139.102 165.305C138.576 166.711 137.74 167.414 136.594 167.414L136.32 167.391L135.781 167.289V166.117L136.172 166.148C136.661 166.148 137.042 166.049 137.312 165.852C137.589 165.654 137.815 165.292 137.992 164.766L138.312 163.906L135.297 155.547H136.875L138.984 161.883ZM149.125 155.547L149.164 156.484C149.784 155.755 150.62 155.391 151.672 155.391C152.854 155.391 153.659 155.844 154.086 156.75C154.367 156.344 154.732 156.016 155.18 155.766C155.633 155.516 156.167 155.391 156.781 155.391C158.635 155.391 159.578 156.372 159.609 158.336V164H158.164V158.422C158.164 157.818 158.026 157.367 157.75 157.07C157.474 156.768 157.01 156.617 156.359 156.617C155.823 156.617 155.378 156.779 155.023 157.102C154.669 157.419 154.464 157.849 154.406 158.391V164H152.953V158.461C152.953 157.232 152.352 156.617 151.148 156.617C150.201 156.617 149.552 157.021 149.203 157.828V164H147.758V155.547H149.125ZM167.016 164C166.932 163.833 166.865 163.536 166.812 163.109C166.141 163.807 165.339 164.156 164.406 164.156C163.573 164.156 162.888 163.922 162.352 163.453C161.82 162.979 161.555 162.38 161.555 161.656C161.555 160.776 161.888 160.094 162.555 159.609C163.227 159.12 164.169 158.875 165.383 158.875H166.789V158.211C166.789 157.706 166.638 157.305 166.336 157.008C166.034 156.706 165.589 156.555 165 156.555C164.484 156.555 164.052 156.685 163.703 156.945C163.354 157.206 163.18 157.521 163.18 157.891H161.727C161.727 157.469 161.875 157.062 162.172 156.672C162.474 156.276 162.88 155.964 163.391 155.734C163.906 155.505 164.471 155.391 165.086 155.391C166.06 155.391 166.823 155.635 167.375 156.125C167.927 156.609 168.214 157.279 168.234 158.133V162.023C168.234 162.799 168.333 163.417 168.531 163.875V164H167.016ZM164.617 162.898C165.07 162.898 165.5 162.781 165.906 162.547C166.312 162.312 166.607 162.008 166.789 161.633V159.898H165.656C163.885 159.898 163 160.417 163 161.453C163 161.906 163.151 162.26 163.453 162.516C163.755 162.771 164.143 162.898 164.617 162.898ZM172.461 153.5V155.547H174.039V156.664H172.461V161.906C172.461 162.245 172.531 162.5 172.672 162.672C172.812 162.839 173.052 162.922 173.391 162.922C173.557 162.922 173.786 162.891 174.078 162.828V164C173.698 164.104 173.328 164.156 172.969 164.156C172.323 164.156 171.836 163.961 171.508 163.57C171.18 163.18 171.016 162.625 171.016 161.906V156.664H169.477V155.547H171.016V153.5H172.461ZM179.125 162.977C179.641 162.977 180.091 162.82 180.477 162.508C180.862 162.195 181.076 161.805 181.117 161.336H182.484C182.458 161.82 182.292 162.281 181.984 162.719C181.677 163.156 181.266 163.505 180.75 163.766C180.24 164.026 179.698 164.156 179.125 164.156C177.974 164.156 177.057 163.773 176.375 163.008C175.698 162.237 175.359 161.185 175.359 159.852V159.609C175.359 158.786 175.51 158.055 175.812 157.414C176.115 156.773 176.547 156.276 177.109 155.922C177.677 155.568 178.346 155.391 179.117 155.391C180.065 155.391 180.852 155.674 181.477 156.242C182.107 156.81 182.443 157.547 182.484 158.453H181.117C181.076 157.906 180.867 157.458 180.492 157.109C180.122 156.755 179.664 156.578 179.117 156.578C178.383 156.578 177.812 156.844 177.406 157.375C177.005 157.901 176.805 158.664 176.805 159.664V159.938C176.805 160.911 177.005 161.661 177.406 162.188C177.807 162.714 178.38 162.977 179.125 162.977ZM185.555 156.57C186.195 155.784 187.029 155.391 188.055 155.391C189.841 155.391 190.742 156.398 190.758 158.414V164H189.312V158.406C189.307 157.797 189.167 157.346 188.891 157.055C188.62 156.763 188.195 156.617 187.617 156.617C187.148 156.617 186.737 156.742 186.383 156.992C186.029 157.242 185.753 157.57 185.555 157.977V164H184.109V152H185.555V156.57ZM196.43 164.156C195.284 164.156 194.352 163.781 193.633 163.031C192.914 162.276 192.555 161.268 192.555 160.008V159.742C192.555 158.904 192.714 158.156 193.031 157.5C193.354 156.839 193.802 156.323 194.375 155.953C194.953 155.578 195.578 155.391 196.25 155.391C197.349 155.391 198.203 155.753 198.812 156.477C199.422 157.201 199.727 158.237 199.727 159.586V160.188H194C194.021 161.021 194.263 161.695 194.727 162.211C195.195 162.721 195.789 162.977 196.508 162.977C197.018 162.977 197.451 162.872 197.805 162.664C198.159 162.456 198.469 162.18 198.734 161.836L199.617 162.523C198.909 163.612 197.846 164.156 196.43 164.156ZM196.25 156.578C195.667 156.578 195.177 156.792 194.781 157.219C194.385 157.641 194.141 158.234 194.047 159H198.281V158.891C198.24 158.156 198.042 157.589 197.688 157.188C197.333 156.781 196.854 156.578 196.25 156.578ZM206.328 161.758C206.328 161.367 206.18 161.065 205.883 160.852C205.591 160.633 205.078 160.445 204.344 160.289C203.615 160.133 203.034 159.945 202.602 159.727C202.174 159.508 201.857 159.247 201.648 158.945C201.445 158.643 201.344 158.284 201.344 157.867C201.344 157.174 201.635 156.589 202.219 156.109C202.807 155.63 203.557 155.391 204.469 155.391C205.427 155.391 206.203 155.638 206.797 156.133C207.396 156.628 207.695 157.26 207.695 158.031H206.242C206.242 157.635 206.073 157.294 205.734 157.008C205.401 156.721 204.979 156.578 204.469 156.578C203.943 156.578 203.531 156.693 203.234 156.922C202.938 157.151 202.789 157.451 202.789 157.82C202.789 158.169 202.927 158.432 203.203 158.609C203.479 158.786 203.977 158.956 204.695 159.117C205.419 159.279 206.005 159.471 206.453 159.695C206.901 159.919 207.232 160.19 207.445 160.508C207.664 160.82 207.773 161.203 207.773 161.656C207.773 162.411 207.471 163.018 206.867 163.477C206.263 163.93 205.479 164.156 204.516 164.156C203.839 164.156 203.24 164.036 202.719 163.797C202.198 163.557 201.789 163.224 201.492 162.797C201.201 162.365 201.055 161.898 201.055 161.398H202.5C202.526 161.883 202.719 162.268 203.078 162.555C203.443 162.836 203.922 162.977 204.516 162.977C205.062 162.977 205.5 162.867 205.828 162.648C206.161 162.424 206.328 162.128 206.328 161.758ZM214.336 164V156.664H213V155.547H214.336V154.68C214.336 153.773 214.578 153.073 215.062 152.578C215.547 152.083 216.232 151.836 217.117 151.836C217.451 151.836 217.781 151.88 218.109 151.969L218.031 153.141C217.786 153.094 217.526 153.07 217.25 153.07C216.781 153.07 216.419 153.208 216.164 153.484C215.909 153.755 215.781 154.146 215.781 154.656V155.547H217.586V156.664H215.781V164H214.336ZM218.805 159.695C218.805 158.867 218.966 158.122 219.289 157.461C219.617 156.799 220.07 156.289 220.648 155.93C221.232 155.57 221.896 155.391 222.641 155.391C223.792 155.391 224.721 155.789 225.43 156.586C226.143 157.383 226.5 158.443 226.5 159.766V159.867C226.5 160.69 226.341 161.43 226.023 162.086C225.711 162.737 225.26 163.245 224.672 163.609C224.089 163.974 223.417 164.156 222.656 164.156C221.51 164.156 220.581 163.758 219.867 162.961C219.159 162.164 218.805 161.109 218.805 159.797V159.695ZM220.258 159.867C220.258 160.805 220.474 161.557 220.906 162.125C221.344 162.693 221.927 162.977 222.656 162.977C223.391 162.977 223.974 162.69 224.406 162.117C224.839 161.539 225.055 160.732 225.055 159.695C225.055 158.768 224.833 158.018 224.391 157.445C223.953 156.867 223.37 156.578 222.641 156.578C221.927 156.578 221.352 156.862 220.914 157.43C220.477 157.997 220.258 158.81 220.258 159.867ZM232.398 156.844C232.18 156.807 231.943 156.789 231.688 156.789C230.74 156.789 230.096 157.193 229.758 158V164H228.312V155.547H229.719L229.742 156.523C230.216 155.768 230.888 155.391 231.758 155.391C232.039 155.391 232.253 155.427 232.398 155.5V156.844ZM240.469 161.883L242.438 155.547H243.984L240.586 165.305C240.06 166.711 239.224 167.414 238.078 167.414L237.805 167.391L237.266 167.289V166.117L237.656 166.148C238.146 166.148 238.526 166.049 238.797 165.852C239.073 165.654 239.299 165.292 239.477 164.766L239.797 163.906L236.781 155.547H238.359L240.469 161.883ZM244.773 159.695C244.773 158.867 244.935 158.122 245.258 157.461C245.586 156.799 246.039 156.289 246.617 155.93C247.201 155.57 247.865 155.391 248.609 155.391C249.76 155.391 250.69 155.789 251.398 156.586C252.112 157.383 252.469 158.443 252.469 159.766V159.867C252.469 160.69 252.31 161.43 251.992 162.086C251.68 162.737 251.229 163.245 250.641 163.609C250.057 163.974 249.385 164.156 248.625 164.156C247.479 164.156 246.549 163.758 245.836 162.961C245.128 162.164 244.773 161.109 244.773 159.797V159.695ZM246.227 159.867C246.227 160.805 246.443 161.557 246.875 162.125C247.312 162.693 247.896 162.977 248.625 162.977C249.359 162.977 249.943 162.69 250.375 162.117C250.807 161.539 251.023 160.732 251.023 159.695C251.023 158.768 250.802 158.018 250.359 157.445C249.922 156.867 249.339 156.578 248.609 156.578C247.896 156.578 247.32 156.862 246.883 157.43C246.445 157.997 246.227 158.81 246.227 159.867ZM259.5 163.164C258.938 163.826 258.112 164.156 257.023 164.156C256.122 164.156 255.435 163.896 254.961 163.375C254.492 162.849 254.255 162.073 254.25 161.047V155.547H255.695V161.008C255.695 162.289 256.216 162.93 257.258 162.93C258.362 162.93 259.096 162.518 259.461 161.695V155.547H260.906V164H259.531L259.5 163.164ZM267.195 156.844C266.977 156.807 266.74 156.789 266.484 156.789C265.536 156.789 264.893 157.193 264.555 158V164H263.109V155.547H264.516L264.539 156.523C265.013 155.768 265.685 155.391 266.555 155.391C266.836 155.391 267.049 155.427 267.195 155.5V156.844ZM272.148 159.703C272.148 158.375 272.453 157.326 273.062 156.555C273.672 155.779 274.49 155.391 275.516 155.391C276.516 155.391 277.305 155.727 277.883 156.398L277.945 155.547H279.273V167.25H277.828V163.219C277.245 163.844 276.469 164.156 275.5 164.156C274.479 164.156 273.664 163.76 273.055 162.969C272.451 162.172 272.148 161.117 272.148 159.805V159.703ZM273.594 159.867C273.594 160.836 273.797 161.596 274.203 162.148C274.615 162.701 275.167 162.977 275.859 162.977C276.719 162.977 277.375 162.596 277.828 161.836V157.695C277.37 156.951 276.719 156.578 275.875 156.578C275.177 156.578 274.622 156.857 274.211 157.414C273.799 157.966 273.594 158.784 273.594 159.867ZM286.812 163.164C286.25 163.826 285.424 164.156 284.336 164.156C283.435 164.156 282.747 163.896 282.273 163.375C281.805 162.849 281.568 162.073 281.562 161.047V155.547H283.008V161.008C283.008 162.289 283.529 162.93 284.57 162.93C285.674 162.93 286.409 162.518 286.773 161.695V155.547H288.219V164H286.844L286.812 163.164ZM293.93 164.156C292.784 164.156 291.852 163.781 291.133 163.031C290.414 162.276 290.055 161.268 290.055 160.008V159.742C290.055 158.904 290.214 158.156 290.531 157.5C290.854 156.839 291.302 156.323 291.875 155.953C292.453 155.578 293.078 155.391 293.75 155.391C294.849 155.391 295.703 155.753 296.312 156.477C296.922 157.201 297.227 158.237 297.227 159.586V160.188H291.5C291.521 161.021 291.763 161.695 292.227 162.211C292.695 162.721 293.289 162.977 294.008 162.977C294.518 162.977 294.951 162.872 295.305 162.664C295.659 162.456 295.969 162.18 296.234 161.836L297.117 162.523C296.409 163.612 295.346 164.156 293.93 164.156ZM293.75 156.578C293.167 156.578 292.677 156.792 292.281 157.219C291.885 157.641 291.641 158.234 291.547 159H295.781V158.891C295.74 158.156 295.542 157.589 295.188 157.188C294.833 156.781 294.354 156.578 293.75 156.578ZM302.992 156.844C302.773 156.807 302.536 156.789 302.281 156.789C301.333 156.789 300.69 157.193 300.352 158V164H298.906V155.547H300.312L300.336 156.523C300.81 155.768 301.482 155.391 302.352 155.391C302.633 155.391 302.846 155.427 302.992 155.5V156.844ZM307.234 161.883L309.203 155.547H310.75L307.352 165.305C306.826 166.711 305.99 167.414 304.844 167.414L304.57 167.391L304.031 167.289V166.117L304.422 166.148C304.911 166.148 305.292 166.049 305.562 165.852C305.839 165.654 306.065 165.292 306.242 164.766L306.562 163.906L303.547 155.547H305.125L307.234 161.883Z"
        fill="#5A5A89" />
    <defs>
        <clipPath id="clip0_4795_3657">
            <rect width="133" height="133" fill="white" transform="translate(89)" />
        </clipPath>
    </defs>
</svg>