<svg width="79" height="22" viewBox="0 0 79 22" fill="none" xmlns="http://www.w3.org/2000/svg">
<path d="M4.67188 10.9297C3.38542 10.5599 2.44792 10.1068 1.85938 9.57031C1.27604 9.02865 0.984375 8.36198 0.984375 7.57031C0.984375 6.67448 1.34115 5.9349 2.05469 5.35156C2.77344 4.76302 3.70573 4.46875 4.85156 4.46875C5.63281 4.46875 6.32812 4.61979 6.9375 4.92188C7.55208 5.22396 8.02604 5.64062 8.35938 6.17188C8.69792 6.70312 8.86719 7.28385 8.86719 7.91406H7.35938C7.35938 7.22656 7.14062 6.6875 6.70312 6.29688C6.26562 5.90104 5.64844 5.70312 4.85156 5.70312C4.11198 5.70312 3.53385 5.86719 3.11719 6.19531C2.70573 6.51823 2.5 6.96875 2.5 7.54688C2.5 8.01042 2.69531 8.40365 3.08594 8.72656C3.48177 9.04427 4.15104 9.33594 5.09375 9.60156C6.04167 9.86719 6.78125 10.1615 7.3125 10.4844C7.84896 10.8021 8.24479 11.1745 8.5 11.6016C8.76042 12.0286 8.89062 12.5312 8.89062 13.1094C8.89062 14.0312 8.53125 14.7708 7.8125 15.3281C7.09375 15.8802 6.13281 16.1562 4.92969 16.1562C4.14844 16.1562 3.41927 16.0078 2.74219 15.7109C2.0651 15.4089 1.54167 14.9974 1.17188 14.4766C0.807292 13.9557 0.625 13.3646 0.625 12.7031H2.13281C2.13281 13.3906 2.38542 13.9349 2.89062 14.3359C3.40104 14.7318 4.08073 14.9297 4.92969 14.9297C5.72135 14.9297 6.32812 14.7682 6.75 14.4453C7.17188 14.1224 7.38281 13.6823 7.38281 13.125C7.38281 12.5677 7.1875 12.138 6.79688 11.8359C6.40625 11.5286 5.69792 11.2266 4.67188 10.9297ZM10.4609 11.6953C10.4609 10.8672 10.6224 10.1224 10.9453 9.46094C11.2734 8.79948 11.7266 8.28906 12.3047 7.92969C12.888 7.57031 13.5521 7.39062 14.2969 7.39062C15.4479 7.39062 16.3776 7.78906 17.0859 8.58594C17.7995 9.38281 18.1562 10.4427 18.1562 11.7656V11.8672C18.1562 12.6901 17.9974 13.4297 17.6797 14.0859C17.3672 14.737 16.9167 15.2448 16.3281 15.6094C15.7448 15.974 15.0729 16.1562 14.3125 16.1562C13.1667 16.1562 12.237 15.7578 11.5234 14.9609C10.8151 14.1641 10.4609 13.1094 10.4609 11.7969V11.6953ZM11.9141 11.8672C11.9141 12.8047 12.1302 13.5573 12.5625 14.125C13 14.6927 13.5833 14.9766 14.3125 14.9766C15.0469 14.9766 15.6302 14.6901 16.0625 14.1172C16.4948 13.5391 16.7109 12.7318 16.7109 11.6953C16.7109 10.7682 16.4896 10.0182 16.0469 9.44531C15.6094 8.86719 15.026 8.57812 14.2969 8.57812C13.5833 8.57812 13.0078 8.86198 12.5703 9.42969C12.1328 9.9974 11.9141 10.8099 11.9141 11.8672ZM24.3047 8.84375C24.0859 8.80729 23.849 8.78906 23.5938 8.78906C22.6458 8.78906 22.0026 9.19271 21.6641 10V16H20.2188V7.54688H21.625L21.6484 8.52344C22.1224 7.76823 22.7943 7.39062 23.6641 7.39062C23.9453 7.39062 24.1589 7.42708 24.3047 7.5V8.84375ZM28.2422 5.5V7.54688H29.8203V8.66406H28.2422V13.9062C28.2422 14.2448 28.3125 14.5 28.4531 14.6719C28.5938 14.8385 28.8333 14.9219 29.1719 14.9219C29.3385 14.9219 29.5677 14.8906 29.8594 14.8281V16C29.4792 16.1042 29.1094 16.1562 28.75 16.1562C28.1042 16.1562 27.6172 15.9609 27.2891 15.5703C26.9609 15.1797 26.7969 14.625 26.7969 13.9062V8.66406H25.2578V7.54688H26.7969V5.5H28.2422ZM43.1406 11.8672C43.1406 13.1589 42.8438 14.1979 42.25 14.9844C41.6562 15.7656 40.8594 16.1562 39.8594 16.1562C38.7917 16.1562 37.9661 15.7786 37.3828 15.0234L37.3125 16H35.9844V4H37.4297V8.47656C38.013 7.7526 38.8177 7.39062 39.8438 7.39062C40.8698 7.39062 41.6745 7.77865 42.2578 8.55469C42.8464 9.33073 43.1406 10.3932 43.1406 11.7422V11.8672ZM41.6953 11.7031C41.6953 10.7188 41.5052 9.95833 41.125 9.42188C40.7448 8.88542 40.1979 8.61719 39.4844 8.61719C38.5312 8.61719 37.8464 9.0599 37.4297 9.94531V13.6016C37.8724 14.487 38.5625 14.9297 39.5 14.9297C40.1927 14.9297 40.7318 14.6615 41.1172 14.125C41.5026 13.5885 41.6953 12.7812 41.6953 11.7031ZM47.8906 13.8828L49.8594 7.54688H51.4062L48.0078 17.3047C47.4818 18.7109 46.6458 19.4141 45.5 19.4141L45.2266 19.3906L44.6875 19.2891V18.1172L45.0781 18.1484C45.5677 18.1484 45.9479 18.0495 46.2188 17.8516C46.4948 17.6536 46.7214 17.2917 46.8984 16.7656L47.2188 15.9062L44.2031 7.54688H45.7812L47.8906 13.8828Z" fill="#5A5A89"/>
<path d="M77.3335 8.3335L70.0002 15.6668L62.6668 8.3335" stroke="#5A5A89" stroke-width="2" stroke-linecap="round" stroke-linejoin="round"/>
</svg>
