<svg width="28" height="28" viewBox="0 0 28 28" fill="none" xmlns="http://www.w3.org/2000/svg">
<path d="M12.7978 2.20882C13.1227 1.90163 13.5529 1.73047 14 1.73047C14.4471 1.73047 14.8773 1.90163 15.2023 2.20882L23.6793 10.2221C24.2043 10.7173 24.5 11.4086 24.5 12.1296V21.8771C24.5 22.5733 24.2234 23.2409 23.7312 23.7332C23.2389 24.2255 22.5712 24.5021 21.875 24.5021H18.375C18.0301 24.5021 17.6886 24.4341 17.3701 24.3021C17.0515 24.1701 16.762 23.9765 16.5182 23.7326C16.2744 23.4887 16.0811 23.1991 15.9493 22.8804C15.8175 22.5617 15.7498 22.2202 15.75 21.8753V17.5003C15.75 17.2683 15.6578 17.0457 15.4937 16.8816C15.3296 16.7175 15.1071 16.6253 14.875 16.6253H13.125C12.8929 16.6253 12.6704 16.7175 12.5063 16.8816C12.3422 17.0457 12.25 17.2683 12.25 17.5003V21.8753C12.25 22.5715 11.9734 23.2392 11.4812 23.7315C10.9889 24.2238 10.3212 24.5003 9.625 24.5003H6.125C5.42881 24.5003 4.76113 24.2238 4.26884 23.7315C3.77656 23.2392 3.5 22.5715 3.5 21.8753V12.1278C3.5 11.4068 3.7975 10.7156 4.3225 10.2203L12.7978 2.20532V2.20882ZM14 3.47932L5.523 11.4943C5.43694 11.5759 5.36837 11.6741 5.32144 11.783C5.27451 11.8919 5.2502 12.0092 5.25 12.1278V21.8753C5.25 22.1074 5.34219 22.3299 5.50628 22.494C5.67038 22.6581 5.89294 22.7503 6.125 22.7503H9.625C9.85706 22.7503 10.0796 22.6581 10.2437 22.494C10.4078 22.3299 10.5 22.1074 10.5 21.8753V17.5003C10.5 16.8041 10.7766 16.1364 11.2688 15.6442C11.7611 15.1519 12.4288 14.8753 13.125 14.8753H14.875C15.5712 14.8753 16.2389 15.1519 16.7312 15.6442C17.2234 16.1364 17.5 16.8041 17.5 17.5003V21.8753C17.5 22.1074 17.5922 22.3299 17.7563 22.494C17.9204 22.6581 18.1429 22.7503 18.375 22.7503H21.875C22.1071 22.7503 22.3296 22.6581 22.4937 22.494C22.6578 22.3299 22.75 22.1074 22.75 21.8753V12.1278C22.75 12.0089 22.7258 11.8913 22.6789 11.7821C22.632 11.6729 22.5633 11.5744 22.477 11.4926L14 3.47932Z" fill="#B6B6EA"/>
</svg>
