<svg width="191" height="178" viewBox="0 0 191 178" fill="none" xmlns="http://www.w3.org/2000/svg">
<path opacity="0.2" d="M47.6086 59.8355C49.0997 55.7022 52.92 52.9612 57.1899 52.9612H162.277C169.408 52.9612 174.349 60.3107 171.859 67.213L143.391 146.126C141.9 150.259 138.08 153 133.81 153H28.7225C21.5922 153 16.6512 145.651 19.1412 138.748L47.6086 59.8355Z" fill="white"/>
<path opacity="0.4" d="M36.2871 48.8177C37.3222 43.9789 41.4743 40.5339 46.2713 40.5339H152.239C158.776 40.5339 163.634 46.7829 162.223 53.3764L142.684 144.716C141.649 149.555 137.496 153 132.699 153H26.7316C20.1951 153 15.3369 146.751 16.7475 140.157L36.2871 48.8177Z" fill="white"/>
<path opacity="0.6" d="M25.1128 37.6239C25.6331 32.2218 30.0326 28.1067 35.2877 28.1067H141.648C147.695 28.1067 152.422 33.4991 151.823 39.7157L141.828 143.483C141.308 148.885 136.908 153 131.653 153H25.293C19.2456 153 14.5194 147.607 15.1181 141.391L25.1128 37.6239Z" fill="white"/>
<path d="M14 35.5631C14 29.7293 18.5779 25 24.2251 25H130.686C136.334 25 140.911 29.7293 140.911 35.5631V142.437C140.911 148.271 136.334 153 130.686 153H24.2251C18.5779 153 14 148.271 14 142.437V35.5631Z" fill="white"/>
<path opacity="0.8" fill-rule="evenodd" clip-rule="evenodd" d="M96.9283 88.4919C96.9283 76.9281 88.1529 67.6637 77.4555 67.6637L77.4555 52.9614C95.9489 52.9614 110.837 68.9296 110.837 88.4919C110.837 108.054 95.949 124.022 77.4555 124.022L77.4555 109.32C88.1529 109.32 96.9283 100.056 96.9283 88.4919Z" fill="#262146"/>
<path fill-rule="evenodd" clip-rule="evenodd" d="M63.5464 88.4919C63.5464 76.9281 54.771 67.6637 44.0737 67.6637L44.0737 52.9614C62.5671 52.9614 77.4556 68.9296 77.4556 88.4919C77.4556 108.054 62.5671 124.022 44.0737 124.022L44.0737 109.32C54.771 109.32 63.5464 100.056 63.5464 88.4919Z" fill="#262146"/>
<path d="M77.4556 124.022H44.0737V109.392H77.4556V124.022Z" fill="#514D6B"/>
<path d="M77.4556 67.5916H44.0737V52.9614H77.4556V67.5916Z" fill="#FF3E3E"/>
</svg>
