<svg width="30" height="30" viewBox="0 0 30 30" fill="none" xmlns="http://www.w3.org/2000/svg">
<circle cx="15" cy="15" r="14.5" fill="#131313" fill-opacity="0.49" stroke="white"/>
<path d="M14.2593 6.50639C14.5153 5.8312 15.4841 5.8312 15.7409 6.50639L17.3968 11.0935C17.5128 11.3975 17.808 11.5999 18.1376 11.5999H22.207C22.9589 11.5999 23.2869 12.5359 22.6958 12.9943L19.7999 15.5999C19.6702 15.6996 19.5754 15.8378 19.5291 15.9948C19.4828 16.1517 19.4874 16.3193 19.5423 16.4734L20.5998 20.9558C20.8574 21.6758 20.0239 22.2942 19.3935 21.851L15.4601 19.355C15.3254 19.2603 15.1647 19.2095 15.0001 19.2095C14.8355 19.2095 14.6748 19.2603 14.5401 19.355L10.6067 21.851C9.97712 22.2942 9.14276 21.675 9.40035 20.9558L10.4579 16.4734C10.5128 16.3193 10.5174 16.1517 10.4711 15.9948C10.4248 15.8378 10.33 15.6996 10.2003 15.5999L7.30444 12.9943C6.71246 12.5359 7.04205 11.5999 7.79242 11.5999H11.8618C12.0221 11.6004 12.1787 11.5523 12.311 11.4619C12.4432 11.3715 12.5449 11.243 12.6026 11.0935L14.2585 6.50639H14.2593Z" fill="white"/>
</svg>
