<svg width="30" height="28" viewBox="0 0 30 28" fill="none" xmlns="http://www.w3.org/2000/svg">
<path d="M15.0001 23.4093C11.8963 23.4169 8.85267 22.5634 6.21563 20.946C4.27818 19.7576 2.5722 18.0028 1.25996 16.064C0.378576 14.7619 0.378928 13.057 1.27233 11.763C3.17399 9.00882 5.87662 6.71346 8.97562 5.52443C12.8512 4.03746 17.1491 4.03773 21.0244 5.52443C24.1232 6.71325 26.8259 9.00861 28.7276 11.763C29.621 13.057 29.6214 14.7619 28.74 16.0641C27.4278 18.0028 25.7218 19.7577 23.7844 20.946C21.1475 22.5634 18.1041 23.4169 15.0001 23.4093ZM3.1612 11.6783C2.12265 12.9864 2.12269 14.8331 3.16126 16.1412C4.84539 18.2624 7.09339 19.9052 9.677 20.8708C13.1069 22.1527 16.8926 22.1526 20.3224 20.8708C22.9061 19.9053 25.1541 18.2625 26.8382 16.1413C27.8768 14.8332 27.8768 12.9865 26.8382 11.6784C25.1541 9.55719 22.9061 7.9144 20.3224 6.94881C16.8926 5.66694 13.1069 5.667 9.677 6.94881C7.09339 7.91435 4.84531 9.55713 3.1612 11.6783ZM15.0001 19.4307C13.5181 19.4307 12.097 18.849 11.0491 17.8136C10.0012 16.7781 9.41235 15.3741 9.41235 13.9098C9.41235 12.4455 10.0011 11.0414 11.0491 10.006C12.097 8.97065 13.5181 8.38887 15.0001 8.38887C16.482 8.38887 17.9031 8.97062 18.951 10.006C19.999 11.0415 20.5878 12.4455 20.5878 13.9098C20.5859 15.3735 19.9966 16.7768 18.9492 17.8117C17.9018 18.8466 16.4816 19.4289 15.0001 19.4307ZM15.0001 9.96643C13.9414 9.96643 12.9263 10.3818 12.178 11.1215C11.4294 11.8609 11.009 12.8638 11.009 13.9098C11.009 14.9558 11.4294 15.9588 12.178 16.6981C12.9264 17.4378 13.9414 17.8532 15.0001 17.8532C16.0587 17.8532 17.0738 17.4378 17.8221 16.6981C18.5707 15.9587 18.9911 14.9558 18.9911 13.9098C18.9901 12.8643 18.5694 11.8619 17.821 11.1226C17.0726 10.3832 16.0581 9.96751 15.0001 9.96643Z" fill="#5A5A89"/>
<rect x="3.20166" y="0.702195" width="34.9123" height="2.69957" rx="1.34979" transform="rotate(45 3.20166 0.702195)" fill="#5A5A89" stroke="white"/>
</svg>
