<svg width="30" height="20" viewBox="0 0 30 20" fill="none" xmlns="http://www.w3.org/2000/svg">
<path d="M15.0001 19.5C11.8963 19.5076 8.85267 18.6541 6.21563 17.0367C4.27818 15.8483 2.5722 14.0935 1.25996 12.1547C0.378576 10.8526 0.378928 9.14768 1.27233 7.85374C3.17399 5.09952 5.87662 2.80415 8.97562 1.61513C12.8512 0.128155 17.1491 0.128425 21.0244 1.61513C24.1232 2.80395 26.8259 5.09931 28.7276 7.85371C29.621 9.14767 29.6214 10.8526 28.74 12.1548C27.4278 14.0935 25.7218 15.8484 23.7844 17.0367C21.1475 18.6541 18.1041 19.5076 15.0001 19.5ZM3.1612 7.76904C2.12265 9.07713 2.12269 10.9238 3.16126 12.2319C4.84539 14.3531 7.09339 15.9959 9.677 16.9615C13.1069 18.2434 16.8926 18.2433 20.3224 16.9615C22.9061 15.996 25.1541 14.3532 26.8382 12.232C27.8768 10.9239 27.8768 9.07715 26.8382 7.76907C25.1541 5.64789 22.9061 4.00509 20.3224 3.03951C16.8926 1.75764 13.1069 1.7577 9.677 3.03951C7.09339 4.00504 4.84531 5.64783 3.1612 7.76904ZM15.0001 15.5214C13.5181 15.5214 12.097 14.9397 11.0491 13.9043C10.0012 12.8688 9.41235 11.4648 9.41235 10.0005C9.41235 8.53624 10.0011 7.13214 11.0491 6.09675C12.097 5.06135 13.5181 4.47957 15.0001 4.47957C16.482 4.47957 17.9031 5.06132 18.951 6.09675C19.999 7.13217 20.5878 8.53624 20.5878 10.0005C20.5859 11.4642 19.9966 12.8675 18.9492 13.9024C17.9018 14.9373 16.4816 15.5196 15.0001 15.5214ZM15.0001 6.05713C13.9414 6.05713 12.9263 6.47251 12.178 7.21218C11.4294 7.95161 11.009 8.95449 11.009 10.0005C11.009 11.0465 11.4294 12.0495 12.178 12.7888C12.9264 13.5285 13.9414 13.9439 15.0001 13.9439C16.0587 13.9439 17.0738 13.5285 17.8221 12.7888C18.5707 12.0494 18.9911 11.0465 18.9911 10.0005C18.9901 8.95503 18.5694 7.95263 17.821 7.21326C17.0726 6.4739 16.0581 6.05821 15.0001 6.05713Z" fill="#5A5A89"/>
</svg>
