<svg width="28" height="28" viewBox="0 0 28 28" fill="none" xmlns="http://www.w3.org/2000/svg">
<path d="M8.13011 8.13206C8.21139 8.05058 8.30795 7.98593 8.41425 7.94182C8.52056 7.89771 8.63452 7.875 8.74961 7.875C8.8647 7.875 8.97867 7.89771 9.08497 7.94182C9.19127 7.98593 9.28783 8.05058 9.36911 8.13206L13.9996 12.7643L18.6301 8.13206C18.7115 8.05071 18.808 7.98618 18.9143 7.94215C19.0206 7.89812 19.1346 7.87546 19.2496 7.87546C19.3647 7.87546 19.4786 7.89812 19.5849 7.94215C19.6912 7.98618 19.7878 8.05071 19.8691 8.13206C19.9505 8.21342 20.015 8.31 20.059 8.41629C20.1031 8.52259 20.1257 8.63651 20.1257 8.75156C20.1257 8.86662 20.1031 8.98054 20.059 9.08684C20.015 9.19313 19.9505 9.28971 19.8691 9.37106L15.2369 14.0016L19.8691 18.6321C19.9505 18.7134 20.015 18.81 20.059 18.9163C20.1031 19.0226 20.1257 19.1365 20.1257 19.2516C20.1257 19.3666 20.1031 19.4805 20.059 19.5868C20.015 19.6931 19.9505 19.7897 19.8691 19.8711C19.7878 19.9524 19.6912 20.017 19.5849 20.061C19.4786 20.105 19.3647 20.1277 19.2496 20.1277C19.1346 20.1277 19.0206 20.105 18.9143 20.061C18.808 20.017 18.7115 19.9524 18.6301 19.8711L13.9996 15.2388L9.36911 19.8711C9.28776 19.9524 9.19118 20.017 9.08488 20.061C8.97859 20.105 8.86466 20.1277 8.74961 20.1277C8.63456 20.1277 8.52063 20.105 8.41434 20.061C8.30805 20.017 8.21146 19.9524 8.13011 19.8711C8.04876 19.7897 7.98422 19.6931 7.94019 19.5868C7.89617 19.4805 7.8735 19.3666 7.8735 19.2516C7.8735 19.1365 7.89617 19.0226 7.94019 18.9163C7.98422 18.81 8.04876 18.7134 8.13011 18.6321L12.7624 14.0016L8.13011 9.37106C8.04862 9.28978 7.98397 9.19323 7.93986 9.08692C7.89575 8.98062 7.87305 8.86666 7.87305 8.75156C7.87305 8.63647 7.89575 8.52251 7.93986 8.4162C7.98397 8.3099 8.04862 8.21334 8.13011 8.13206Z" fill="white"/>
</svg>
