<svg width="24" height="24" viewBox="0 0 24 24" fill="none" xmlns="http://www.w3.org/2000/svg">
<path d="M20.0303 6.21966L16.2803 2.46966C16.2107 2.40001 16.128 2.34476 16.037 2.30707C15.946 2.26939 15.8485 2.24999 15.75 2.25H8.25C7.85231 2.25045 7.47104 2.40863 7.18983 2.68983C6.90863 2.97104 6.75045 3.35231 6.75 3.75V5.25H5.25C4.85231 5.25045 4.47104 5.40863 4.18983 5.68983C3.90863 5.97104 3.75045 6.35231 3.75 6.75V20.25C3.75045 20.6477 3.90863 21.029 4.18983 21.3102C4.47104 21.5914 4.85231 21.7496 5.25 21.75H15.75C16.1477 21.7496 16.529 21.5914 16.8102 21.3102C17.0914 21.029 17.2496 20.6477 17.25 20.25V18.75H18.75C19.1477 18.7496 19.529 18.5914 19.8102 18.3102C20.0914 18.029 20.2496 17.6477 20.25 17.25V6.75C20.25 6.65151 20.2306 6.55398 20.1929 6.46298C20.1552 6.37198 20.1 6.2893 20.0303 6.21966V6.21966ZM15.75 20.25H5.25V6.75H12.4394L15.75 10.0607L15.7507 17.9853C15.7507 17.9903 15.75 17.995 15.75 18C15.75 18.005 15.7507 18.0098 15.7507 18.0148L15.7509 20.25H15.75ZM18.75 17.25H17.25V9.75C17.25 9.65151 17.2306 9.55398 17.1929 9.46298C17.1552 9.37198 17.1 9.2893 17.0303 9.21966L13.2803 5.46966C13.2107 5.40001 13.128 5.34476 13.037 5.30707C12.946 5.26939 12.8485 5.24999 12.75 5.25H8.25V3.75H15.4394L18.75 7.06069V17.25ZM13.5 14.25C13.5 14.4489 13.421 14.6397 13.2803 14.7803C13.1397 14.921 12.9489 15 12.75 15H8.25C8.05109 15 7.86032 14.921 7.71967 14.7803C7.57902 14.6397 7.5 14.4489 7.5 14.25C7.5 14.0511 7.57902 13.8603 7.71967 13.7197C7.86032 13.579 8.05109 13.5 8.25 13.5H12.75C12.9489 13.5 13.1397 13.579 13.2803 13.7197C13.421 13.8603 13.5 14.0511 13.5 14.25ZM13.5 17.25C13.5 17.4489 13.421 17.6397 13.2803 17.7803C13.1397 17.921 12.9489 18 12.75 18H8.25C8.05109 18 7.86032 17.921 7.71967 17.7803C7.57902 17.6397 7.5 17.4489 7.5 17.25C7.5 17.0511 7.57902 16.8603 7.71967 16.7197C7.86032 16.579 8.05109 16.5 8.25 16.5H12.75C12.9489 16.5 13.1397 16.579 13.2803 16.7197C13.421 16.8603 13.5 17.0511 13.5 17.25Z" fill="#262146"/>
</svg>
