<svg width="101" height="101" viewBox="0 0 101 101" fill="none" xmlns="http://www.w3.org/2000/svg">
<circle cx="50.5" cy="50.5" r="50.5" fill="#C4C4C4"/>
<path d="M50.4999 40.3115C48.0905 40.3115 45.7353 41.026 43.7319 42.3646C41.7286 43.7031 40.1672 45.6057 39.2452 47.8317C38.3232 50.0577 38.0819 52.5071 38.552 54.8701C39.022 57.2332 40.1822 59.4038 41.8859 61.1075C43.5896 62.8112 45.7602 63.9714 48.1233 64.4415C50.4864 64.9115 52.9358 64.6703 55.1618 63.7483C57.3877 62.8262 59.2903 61.2648 60.6289 59.2615C61.9675 57.2582 62.6819 54.9029 62.6819 52.4935C62.6819 49.2627 61.3985 46.1641 59.1139 43.8796C56.8293 41.595 53.7308 40.3115 50.4999 40.3115ZM50.4999 59.8028C49.0543 59.8028 47.6411 59.3741 46.4391 58.5709C45.2371 57.7678 44.3003 56.6262 43.7471 55.2907C43.1938 53.9551 43.0491 52.4854 43.3311 51.0676C43.6132 49.6497 44.3093 48.3474 45.3315 47.3251C46.3537 46.3029 47.6561 45.6068 49.0739 45.3248C50.4918 45.0427 51.9614 45.1875 53.297 45.7407C54.6326 46.2939 55.7741 47.2308 56.5773 48.4328C57.3804 49.6348 57.8091 51.0479 57.8091 52.4935C57.8091 54.4321 57.039 56.2912 55.6683 57.6619C54.2975 59.0327 52.4384 59.8028 50.4999 59.8028ZM72.4275 86.6032V84.1668C72.4275 79.6436 70.6307 75.3056 67.4323 72.1072C64.2339 68.9088 59.8959 67.112 55.3727 67.112H45.6271C41.1039 67.112 36.7659 68.9088 33.5675 72.1072C30.3691 75.3056 28.5723 79.6436 28.5723 84.1668V86.6032H33.4451V84.1668C33.4451 80.9359 34.7285 77.8374 37.0131 75.5528C39.2977 73.2682 42.3962 71.9848 45.6271 71.9848H55.3727C58.6036 71.9848 61.7021 73.2682 63.9867 75.5528C66.2713 77.8374 67.5547 80.9359 67.5547 84.1668V86.6032H72.4275Z" fill="white"/>
</svg>
