<svg width="16" height="16" viewBox="0 0 16 16" fill="none" xmlns="http://www.w3.org/2000/svg">
<path fill-rule="evenodd" clip-rule="evenodd" d="M1.22855 0.521447C1.03329 0.326184 0.716709 0.326184 0.521447 0.521447C0.326184 0.716709 0.326184 1.03329 0.521447 1.22855L7.24495 7.95206L0.521475 14.6755C0.326213 14.8708 0.326213 15.1874 0.521475 15.3826C0.716738 15.5779 1.03332 15.5779 1.22858 15.3826L7.95207 8.65917L7.9521 8.65913L14.6756 15.3826C14.8709 15.5779 15.1875 15.5779 15.3827 15.3826C15.578 15.1874 15.578 14.8708 15.3827 14.6755L8.65921 7.95203L15.3827 1.22855C15.578 1.03329 15.578 0.716709 15.3827 0.521447C15.1874 0.326184 14.8708 0.326184 14.6756 0.521447L7.9521 7.24492L7.95206 7.24495L1.22855 0.521447Z" fill="#5A5A89"/>
</svg>
